<?xml version="1.0" encoding="utf-8" ?>
<svg baseProfile="full" height="820px" version="1.1" width="800px" xmlns="http://www.w3.org/2000/svg" xmlns:ev="http://www.w3.org/2001/xml-events" xmlns:xlink="http://www.w3.org/1999/xlink"><defs /><line stroke="lightgray" stroke-width="1" x1="78.79518072289156" x2="78.79518072289156" y1="321.05" y2="531.75" /><line stroke="lightgray" stroke-width="1" x1="116.3855421686747" x2="116.3855421686747" y1="321.05" y2="531.75" /><line stroke="lightgray" stroke-width="1" x1="153.97590361445782" x2="153.97590361445782" y1="321.05" y2="531.75" /><line stroke="lightgray" stroke-width="1" x1="191.56626506024097" x2="191.56626506024097" y1="321.05" y2="531.75" /><line stroke="lightgray" stroke-width="1" x1="229.15662650602408" x2="229.15662650602408" y1="321.05" y2="531.75" /><line stroke="lightgray" stroke-width="1" x1="266.7469879518072" x2="266.7469879518072" y1="321.05" y2="531.75" /><line stroke="lightgray" stroke-width="1" x1="304.33734939759034" x2="304.33734939759034" y1="321.05" y2="531.75" /><line stroke="lightgray" stroke-width="1" x1="341.9277108433735" x2="341.9277108433735" y1="321.05" y2="531.75" /><line stroke="lightgray" stroke-width="1" x1="379.51807228915663" x2="379.51807228915663" y1="321.05" y2="531.75" /><line stroke="lightgray" stroke-width="1" x1="417.10843373493975" x2="417.10843373493975" y1="321.05" y2="531.75" /><line stroke="lightgray" stroke-width="1" x1="454.69879518072287" x2="454.69879518072287" y1="321.05" y2="531.75" /><line stroke="lightgray" stroke-width="1" x1="492.289156626506" x2="492.289156626506" y1="321.05" y2="531.75" /><line stroke="lightgray" stroke-width="1" x1="529.8795180722891" x2="529.8795180722891" y1="321.05" y2="531.75" /><line stroke="lightgray" stroke-width="1" x1="567.4698795180723" x2="567.4698795180723" y1="321.05" y2="531.75" /><line stroke="lightgray" stroke-width="1" x1="605.0602409638554" x2="605.0602409638554" y1="321.05" y2="531.75" /><line stroke="lightgray" stroke-width="1" x1="642.6506024096385" x2="642.6506024096385" y1="321.05" y2="531.75" /><line stroke="lightgray" stroke-width="1" x1="680.2409638554217" x2="680.2409638554217" y1="321.05" y2="531.75" /><text fill="gray" font-size="12" style="text-anchor:start;font-family:Arial;dominant-baseline:mathematical" transform="rotate(-90,78,298)" x="78.79518072289156" y="298.05">1000</text><text fill="gray" font-size="12" style="text-anchor:start;font-family:Arial;dominant-baseline:mathematical" transform="rotate(-90,266,298)" x="266.7469879518072" y="298.05">1500</text><text fill="gray" font-size="12" style="text-anchor:start;font-family:Arial;dominant-baseline:mathematical" transform="rotate(-90,454,298)" x="454.69879518072287" y="298.05">2000</text><text fill="gray" font-size="12" style="text-anchor:start;font-family:Arial;dominant-baseline:mathematical" transform="rotate(-90,642,298)" x="642.6506024096385" y="298.05">2500</text><text fill="black" font-size="20" style="text-anchor:end;font-family:Arial;dominant-baseline:mathematical" x="52.0" y="311.6">5′</text><text fill="black" font-size="20" style="text-anchor:start;font-family:Arial;dominant-baseline:mathematical" x="692.0" y="311.6">3′</text><text fill="black" font-size="20" style="text-anchor:end;font-family:Arial;dominant-baseline:mathematical" x="52.0" y="541.2">3′</text><text fill="black" font-size="20" style="text-anchor:start;font-family:Arial;dominant-baseline:mathematical" x="692.0" y="541.2">5′</text><rect fill="rgb(0,255,255)" height="1.7615686274509699" stroke="none" width="16.0" x="730.5" y="536.9384313725491" /><rect fill="rgb(1,254,255)" height="1.7615686274509699" stroke="none" width="16.0" x="730.5" y="536.0576470588236" /><rect fill="rgb(2,253,255)" height="1.7615686274509699" stroke="none" width="16.0" x="730.5" y="535.1768627450981" /><rect fill="rgb(3,252,255)" height="1.7615686274509699" stroke="none" width="16.0" x="730.5" y="534.2960784313726" /><rect fill="rgb(4,251,255)" height="1.7615686274509699" stroke="none" width="16.0" x="730.5" y="533.4152941176471" /><rect fill="rgb(5,250,255)" height="1.7615686274509699" stroke="none" width="16.0" x="730.5" y="532.5345098039217" /><rect fill="rgb(6,249,255)" height="1.7615686274509699" stroke="none" width="16.0" x="730.5" y="531.6537254901962" /><rect fill="rgb(7,248,255)" height="1.7615686274509699" stroke="none" width="16.0" x="730.5" y="530.7729411764707" /><rect fill="rgb(8,247,255)" height="1.7615686274509699" stroke="none" width="16.0" x="730.5" y="529.8921568627452" /><rect fill="rgb(9,246,255)" height="1.7615686274510836" stroke="none" width="16.0" x="730.5" y="529.0113725490196" /><rect fill="rgb(10,245,255)" height="1.7615686274510836" stroke="none" width="16.0" x="730.5" y="528.1305882352941" /><rect fill="rgb(11,244,255)" height="1.7615686274509699" stroke="none" width="16.0" x="730.5" y="527.2498039215686" /><rect fill="rgb(12,243,255)" height="1.7615686274509699" stroke="none" width="16.0" x="730.5" y="526.3690196078431" /><rect fill="rgb(13,242,255)" height="1.7615686274509699" stroke="none" width="16.0" x="730.5" y="525.4882352941177" /><rect fill="rgb(14,241,255)" height="1.7615686274509699" stroke="none" width="16.0" x="730.5" y="524.6074509803922" /><rect fill="rgb(15,240,255)" height="1.7615686274509699" stroke="none" width="16.0" x="730.5" y="523.7266666666667" /><rect fill="rgb(16,239,255)" height="1.7615686274509699" stroke="none" width="16.0" x="730.5" y="522.8458823529412" /><rect fill="rgb(17,238,255)" height="1.7615686274509699" stroke="none" width="16.0" x="730.5" y="521.9650980392157" /><rect fill="rgb(18,237,255)" height="1.7615686274509699" stroke="none" width="16.0" x="730.5" y="521.0843137254902" /><rect fill="rgb(19,236,255)" height="1.7615686274509699" stroke="none" width="16.0" x="730.5" y="520.2035294117647" /><rect fill="rgb(20,235,255)" height="1.7615686274509699" stroke="none" width="16.0" x="730.5" y="519.3227450980393" /><rect fill="rgb(21,234,255)" height="1.7615686274509699" stroke="none" width="16.0" x="730.5" y="518.4419607843138" /><rect fill="rgb(22,233,255)" height="1.7615686274509699" stroke="none" width="16.0" x="730.5" y="517.5611764705883" /><rect fill="rgb(23,232,255)" height="1.7615686274509699" stroke="none" width="16.0" x="730.5" y="516.6803921568628" /><rect fill="rgb(24,231,255)" height="1.7615686274509699" stroke="none" width="16.0" x="730.5" y="515.7996078431373" /><rect fill="rgb(25,230,255)" height="1.7615686274509699" stroke="none" width="16.0" x="730.5" y="514.9188235294118" /><rect fill="rgb(26,229,255)" height="1.7615686274509699" stroke="none" width="16.0" x="730.5" y="514.0380392156864" /><rect fill="rgb(27,228,255)" height="1.7615686274509699" stroke="none" width="16.0" x="730.5" y="513.1572549019609" /><rect fill="rgb(28,227,255)" height="1.7615686274509699" stroke="none" width="16.0" x="730.5" y="512.2764705882354" /><rect fill="rgb(29,226,255)" height="1.7615686274510267" stroke="none" width="16.0" x="730.5" y="511.39568627450984" /><rect fill="rgb(30,225,255)" height="1.7615686274510267" stroke="none" width="16.0" x="730.5" y="510.51490196078436" /><rect fill="rgb(31,224,255)" height="1.7615686274509699" stroke="none" width="16.0" x="730.5" y="509.6341176470589" /><rect fill="rgb(32,223,255)" height="1.7615686274509699" stroke="none" width="16.0" x="730.5" y="508.7533333333334" /><rect fill="rgb(32,222,255)" height="1.7615686274509699" stroke="none" width="16.0" x="730.5" y="507.8725490196079" /><rect fill="rgb(34,221,255)" height="1.7615686274509699" stroke="none" width="16.0" x="730.5" y="506.9917647058824" /><rect fill="rgb(35,220,255)" height="1.7615686274510267" stroke="none" width="16.0" x="730.5" y="506.1109803921569" /><rect fill="rgb(36,219,255)" height="1.7615686274510267" stroke="none" width="16.0" x="730.5" y="505.2301960784314" /><rect fill="rgb(36,218,255)" height="1.7615686274509699" stroke="none" width="16.0" x="730.5" y="504.3494117647059" /><rect fill="rgb(38,217,255)" height="1.7615686274509699" stroke="none" width="16.0" x="730.5" y="503.4686274509804" /><rect fill="rgb(39,216,255)" height="1.7615686274509699" stroke="none" width="16.0" x="730.5" y="502.58784313725494" /><rect fill="rgb(40,215,255)" height="1.7615686274509699" stroke="none" width="16.0" x="730.5" y="501.70705882352945" /><rect fill="rgb(40,214,255)" height="1.7615686274509699" stroke="none" width="16.0" x="730.5" y="500.82627450980397" /><rect fill="rgb(42,213,255)" height="1.7615686274509699" stroke="none" width="16.0" x="730.5" y="499.9454901960785" /><rect fill="rgb(43,211,255)" height="1.7615686274509699" stroke="none" width="16.0" x="730.5" y="499.064705882353" /><rect fill="rgb(44,211,255)" height="1.7615686274509699" stroke="none" width="16.0" x="730.5" y="498.1839215686275" /><rect fill="rgb(44,210,255)" height="1.7615686274509699" stroke="none" width="16.0" x="730.5" y="497.303137254902" /><rect fill="rgb(46,209,255)" height="1.7615686274509699" stroke="none" width="16.0" x="730.5" y="496.42235294117654" /><rect fill="rgb(47,208,255)" height="1.7615686274510267" stroke="none" width="16.0" x="730.5" y="495.541568627451" /><rect fill="rgb(48,207,255)" height="1.7615686274510267" stroke="none" width="16.0" x="730.5" y="494.6607843137255" /><rect fill="rgb(48,206,255)" height="1.7615686274509699" stroke="none" width="16.0" x="730.5" y="493.78000000000003" /><rect fill="rgb(50,205,255)" height="1.7615686274509699" stroke="none" width="16.0" x="730.5" y="492.89921568627454" /><rect fill="rgb(51,204,255)" height="1.7615686274509699" stroke="none" width="16.0" x="730.5" y="492.01843137254906" /><rect fill="rgb(52,203,255)" height="1.7615686274509699" stroke="none" width="16.0" x="730.5" y="491.1376470588236" /><rect fill="rgb(52,202,255)" height="1.7615686274509699" stroke="none" width="16.0" x="730.5" y="490.2568627450981" /><rect fill="rgb(54,201,255)" height="1.7615686274509699" stroke="none" width="16.0" x="730.5" y="489.3760784313726" /><rect fill="rgb(55,200,255)" height="1.7615686274509699" stroke="none" width="16.0" x="730.5" y="488.4952941176471" /><rect fill="rgb(56,199,255)" height="1.7615686274510267" stroke="none" width="16.0" x="730.5" y="487.6145098039216" /><rect fill="rgb(56,198,255)" height="1.7615686274510267" stroke="none" width="16.0" x="730.5" y="486.7337254901961" /><rect fill="rgb(58,197,255)" height="1.7615686274509699" stroke="none" width="16.0" x="730.5" y="485.8529411764706" /><rect fill="rgb(59,195,255)" height="1.7615686274509699" stroke="none" width="16.0" x="730.5" y="484.9721568627451" /><rect fill="rgb(60,195,255)" height="1.7615686274509699" stroke="none" width="16.0" x="730.5" y="484.09137254901964" /><rect fill="rgb(60,194,255)" height="1.7615686274509699" stroke="none" width="16.0" x="730.5" y="483.21058823529415" /><rect fill="rgb(62,193,255)" height="1.7615686274509699" stroke="none" width="16.0" x="730.5" y="482.32980392156867" /><rect fill="rgb(63,192,255)" height="1.7615686274509699" stroke="none" width="16.0" x="730.5" y="481.4490196078432" /><rect fill="rgb(64,191,255)" height="1.7615686274509699" stroke="none" width="16.0" x="730.5" y="480.5682352941177" /><rect fill="rgb(65,190,255)" height="1.7615686274509699" stroke="none" width="16.0" x="730.5" y="479.6874509803922" /><rect fill="rgb(65,189,255)" height="1.7615686274509699" stroke="none" width="16.0" x="730.5" y="478.80666666666673" /><rect fill="rgb(67,188,255)" height="1.7615686274509699" stroke="none" width="16.0" x="730.5" y="477.92588235294124" /><rect fill="rgb(68,187,255)" height="1.7615686274509699" stroke="none" width="16.0" x="730.5" y="477.04509803921576" /><rect fill="rgb(69,186,255)" height="1.7615686274510267" stroke="none" width="16.0" x="730.5" y="476.1643137254902" /><rect fill="rgb(70,185,255)" height="1.7615686274510267" stroke="none" width="16.0" x="730.5" y="475.28352941176473" /><rect fill="rgb(71,184,255)" height="1.7615686274509699" stroke="none" width="16.0" x="730.5" y="474.40274509803925" /><rect fill="rgb(72,183,255)" height="1.7615686274509699" stroke="none" width="16.0" x="730.5" y="473.52196078431376" /><rect fill="rgb(73,182,255)" height="1.7615686274509699" stroke="none" width="16.0" x="730.5" y="472.6411764705883" /><rect fill="rgb(73,181,255)" height="1.7615686274509699" stroke="none" width="16.0" x="730.5" y="471.7603921568628" /><rect fill="rgb(75,179,255)" height="1.7615686274509699" stroke="none" width="16.0" x="730.5" y="470.8796078431373" /><rect fill="rgb(76,179,255)" height="1.7615686274509699" stroke="none" width="16.0" x="730.5" y="469.9988235294118" /><rect fill="rgb(77,178,255)" height="1.7615686274510267" stroke="none" width="16.0" x="730.5" y="469.1180392156863" /><rect fill="rgb(78,177,255)" height="1.7615686274510267" stroke="none" width="16.0" x="730.5" y="468.2372549019608" /><rect fill="rgb(79,176,255)" height="1.7615686274509699" stroke="none" width="16.0" x="730.5" y="467.3564705882353" /><rect fill="rgb(80,175,255)" height="1.7615686274509699" stroke="none" width="16.0" x="730.5" y="466.4756862745098" /><rect fill="rgb(81,174,255)" height="1.7615686274509699" stroke="none" width="16.0" x="730.5" y="465.59490196078434" /><rect fill="rgb(81,173,255)" height="1.7615686274509699" stroke="none" width="16.0" x="730.5" y="464.71411764705886" /><rect fill="rgb(83,172,255)" height="1.7615686274509699" stroke="none" width="16.0" x="730.5" y="463.83333333333337" /><rect fill="rgb(84,171,255)" height="1.7615686274509699" stroke="none" width="16.0" x="730.5" y="462.9525490196079" /><rect fill="rgb(85,170,255)" height="1.7615686274509699" stroke="none" width="16.0" x="730.5" y="462.0717647058824" /><rect fill="rgb(86,169,255)" height="1.7615686274509699" stroke="none" width="16.0" x="730.5" y="461.1909803921569" /><rect fill="rgb(87,168,255)" height="1.7615686274509699" stroke="none" width="16.0" x="730.5" y="460.31019607843143" /><rect fill="rgb(88,167,255)" height="1.7615686274509699" stroke="none" width="16.0" x="730.5" y="459.42941176470595" /><rect fill="rgb(89,166,255)" height="1.7615686274509699" stroke="none" width="16.0" x="730.5" y="458.54862745098046" /><rect fill="rgb(89,165,255)" height="1.7615686274509699" stroke="none" width="16.0" x="730.5" y="457.667843137255" /><rect fill="rgb(91,163,255)" height="1.7615686274510267" stroke="none" width="16.0" x="730.5" y="456.78705882352943" /><rect fill="rgb(92,163,255)" height="1.7615686274510267" stroke="none" width="16.0" x="730.5" y="455.90627450980395" /><rect fill="rgb(93,162,255)" height="1.7615686274509699" stroke="none" width="16.0" x="730.5" y="455.02549019607847" /><rect fill="rgb(94,161,255)" height="1.7615686274509699" stroke="none" width="16.0" x="730.5" y="454.144705882353" /><rect fill="rgb(95,160,255)" height="1.7615686274509699" stroke="none" width="16.0" x="730.5" y="453.2639215686275" /><rect fill="rgb(96,159,255)" height="1.7615686274509699" stroke="none" width="16.0" x="730.5" y="452.383137254902" /><rect fill="rgb(97,158,255)" height="1.7615686274509699" stroke="none" width="16.0" x="730.5" y="451.5023529411765" /><rect fill="rgb(97,157,255)" height="1.7615686274510267" stroke="none" width="16.0" x="730.5" y="450.621568627451" /><rect fill="rgb(99,156,255)" height="1.7615686274510267" stroke="none" width="16.0" x="730.5" y="449.7407843137255" /><rect fill="rgb(100,155,255)" height="1.7615686274509699" stroke="none" width="16.0" x="730.5" y="448.86" /><rect fill="rgb(101,154,255)" height="1.7615686274509699" stroke="none" width="16.0" x="730.5" y="447.97921568627453" /><rect fill="rgb(102,153,255)" height="1.7615686274509699" stroke="none" width="16.0" x="730.5" y="447.09843137254904" /><rect fill="rgb(103,152,255)" height="1.7615686274509699" stroke="none" width="16.0" x="730.5" y="446.21764705882356" /><rect fill="rgb(104,151,255)" height="1.7615686274509699" stroke="none" width="16.0" x="730.5" y="445.3368627450981" /><rect fill="rgb(105,150,255)" height="1.7615686274509699" stroke="none" width="16.0" x="730.5" y="444.4560784313726" /><rect fill="rgb(105,149,255)" height="1.7615686274509699" stroke="none" width="16.0" x="730.5" y="443.5752941176471" /><rect fill="rgb(107,147,255)" height="1.7615686274509699" stroke="none" width="16.0" x="730.5" y="442.6945098039216" /><rect fill="rgb(108,147,255)" height="1.7615686274509699" stroke="none" width="16.0" x="730.5" y="441.81372549019613" /><rect fill="rgb(109,146,255)" height="1.7615686274509699" stroke="none" width="16.0" x="730.5" y="440.93294117647065" /><rect fill="rgb(110,145,255)" height="1.7615686274509699" stroke="none" width="16.0" x="730.5" y="440.05215686274516" /><rect fill="rgb(111,144,255)" height="1.7615686274509699" stroke="none" width="16.0" x="730.5" y="439.1713725490197" /><rect fill="rgb(112,143,255)" height="1.7615686274510267" stroke="none" width="16.0" x="730.5" y="438.29058823529414" /><rect fill="rgb(113,142,255)" height="1.7615686274510267" stroke="none" width="16.0" x="730.5" y="437.40980392156865" /><rect fill="rgb(113,141,255)" height="1.7615686274509699" stroke="none" width="16.0" x="730.5" y="436.52901960784317" /><rect fill="rgb(115,140,255)" height="1.7615686274509699" stroke="none" width="16.0" x="730.5" y="435.6482352941177" /><rect fill="rgb(116,139,255)" height="1.7615686274509699" stroke="none" width="16.0" x="730.5" y="434.7674509803922" /><rect fill="rgb(117,138,255)" height="1.7615686274509699" stroke="none" width="16.0" x="730.5" y="433.8866666666667" /><rect fill="rgb(118,137,255)" height="1.7615686274509699" stroke="none" width="16.0" x="730.5" y="433.0058823529412" /><rect fill="rgb(119,136,255)" height="1.7615686274509699" stroke="none" width="16.0" x="730.5" y="432.12509803921574" /><rect fill="rgb(120,135,255)" height="1.7615686274510267" stroke="none" width="16.0" x="730.5" y="431.2443137254902" /><rect fill="rgb(121,134,255)" height="1.7615686274510267" stroke="none" width="16.0" x="730.5" y="430.3635294117647" /><rect fill="rgb(121,133,255)" height="1.7615686274509699" stroke="none" width="16.0" x="730.5" y="429.48274509803923" /><rect fill="rgb(123,131,255)" height="1.7615686274509699" stroke="none" width="16.0" x="730.5" y="428.60196078431375" /><rect fill="rgb(124,131,255)" height="1.7615686274509699" stroke="none" width="16.0" x="730.5" y="427.72117647058826" /><rect fill="rgb(125,130,255)" height="1.7615686274509699" stroke="none" width="16.0" x="730.5" y="426.8403921568628" /><rect fill="rgb(126,129,255)" height="1.7615686274509699" stroke="none" width="16.0" x="730.5" y="425.9596078431373" /><rect fill="rgb(127,128,255)" height="1.7615686274509699" stroke="none" width="16.0" x="730.5" y="425.0788235294118" /><rect fill="rgb(128,127,255)" height="1.7615686274509699" stroke="none" width="16.0" x="730.5" y="424.1980392156863" /><rect fill="rgb(129,126,255)" height="1.7615686274509699" stroke="none" width="16.0" x="730.5" y="423.31725490196084" /><rect fill="rgb(130,125,255)" height="1.7615686274509699" stroke="none" width="16.0" x="730.5" y="422.43647058823535" /><rect fill="rgb(131,124,255)" height="1.7615686274509699" stroke="none" width="16.0" x="730.5" y="421.55568627450987" /><rect fill="rgb(131,123,255)" height="1.7615686274509699" stroke="none" width="16.0" x="730.5" y="420.6749019607844" /><rect fill="rgb(133,121,255)" height="1.7615686274510267" stroke="none" width="16.0" x="730.5" y="419.79411764705884" /><rect fill="rgb(134,121,255)" height="1.7615686274510267" stroke="none" width="16.0" x="730.5" y="418.91333333333336" /><rect fill="rgb(135,120,255)" height="1.7615686274509699" stroke="none" width="16.0" x="730.5" y="418.03254901960787" /><rect fill="rgb(136,119,255)" height="1.7615686274509699" stroke="none" width="16.0" x="730.5" y="417.1517647058824" /><rect fill="rgb(137,118,255)" height="1.7615686274509699" stroke="none" width="16.0" x="730.5" y="416.2709803921569" /><rect fill="rgb(138,117,255)" height="1.7615686274509699" stroke="none" width="16.0" x="730.5" y="415.3901960784314" /><rect fill="rgb(139,116,255)" height="1.7615686274509699" stroke="none" width="16.0" x="730.5" y="414.50941176470593" /><rect fill="rgb(140,114,255)" height="1.7615686274509699" stroke="none" width="16.0" x="730.5" y="413.62862745098045" /><rect fill="rgb(141,113,255)" height="1.7615686274510267" stroke="none" width="16.0" x="730.5" y="412.7478431372549" /><rect fill="rgb(142,113,255)" height="1.7615686274510267" stroke="none" width="16.0" x="730.5" y="411.8670588235294" /><rect fill="rgb(143,112,255)" height="1.7615686274509699" stroke="none" width="16.0" x="730.5" y="410.98627450980393" /><rect fill="rgb(144,111,255)" height="1.7615686274509699" stroke="none" width="16.0" x="730.5" y="410.10549019607845" /><rect fill="rgb(145,110,255)" height="1.7615686274509699" stroke="none" width="16.0" x="730.5" y="409.22470588235296" /><rect fill="rgb(146,109,255)" height="1.7615686274509699" stroke="none" width="16.0" x="730.5" y="408.3439215686275" /><rect fill="rgb(147,108,255)" height="1.7615686274509699" stroke="none" width="16.0" x="730.5" y="407.463137254902" /><rect fill="rgb(147,107,255)" height="1.7615686274509699" stroke="none" width="16.0" x="730.5" y="406.5823529411765" /><rect fill="rgb(149,105,255)" height="1.7615686274509699" stroke="none" width="16.0" x="730.5" y="405.701568627451" /><rect fill="rgb(150,105,255)" height="1.7615686274509699" stroke="none" width="16.0" x="730.5" y="404.82078431372554" /><rect fill="rgb(151,104,255)" height="1.7615686274509699" stroke="none" width="16.0" x="730.5" y="403.94000000000005" /><rect fill="rgb(152,103,255)" height="1.7615686274509699" stroke="none" width="16.0" x="730.5" y="403.05921568627457" /><rect fill="rgb(153,102,255)" height="1.7615686274509699" stroke="none" width="16.0" x="730.5" y="402.1784313725491" /><rect fill="rgb(154,101,255)" height="1.7615686274509699" stroke="none" width="16.0" x="730.5" y="401.2976470588236" /><rect fill="rgb(155,100,255)" height="1.7615686274509699" stroke="none" width="16.0" x="730.5" y="400.4168627450981" /><rect fill="rgb(156,98,255)" height="1.7615686274510267" stroke="none" width="16.0" x="730.5" y="399.5360784313726" /><rect fill="rgb(157,97,255)" height="1.7615686274510267" stroke="none" width="16.0" x="730.5" y="398.6552941176471" /><rect fill="rgb(158,97,255)" height="1.7615686274509699" stroke="none" width="16.0" x="730.5" y="397.7745098039216" /><rect fill="rgb(159,96,255)" height="1.7615686274509699" stroke="none" width="16.0" x="730.5" y="396.8937254901961" /><rect fill="rgb(160,95,255)" height="1.7615686274509699" stroke="none" width="16.0" x="730.5" y="396.01294117647063" /><rect fill="rgb(161,94,255)" height="1.7615686274510267" stroke="none" width="16.0" x="730.5" y="395.1321568627451" /><rect fill="rgb(162,93,255)" height="1.7615686274510267" stroke="none" width="16.0" x="730.5" y="394.2513725490196" /><rect fill="rgb(163,92,255)" height="1.7615686274509699" stroke="none" width="16.0" x="730.5" y="393.3705882352941" /><rect fill="rgb(163,91,255)" height="1.7615686274509699" stroke="none" width="16.0" x="730.5" y="392.48980392156864" /><rect fill="rgb(165,89,255)" height="1.7615686274509699" stroke="none" width="16.0" x="730.5" y="391.60901960784315" /><rect fill="rgb(166,89,255)" height="1.7615686274509699" stroke="none" width="16.0" x="730.5" y="390.72823529411767" /><rect fill="rgb(167,88,255)" height="1.7615686274509699" stroke="none" width="16.0" x="730.5" y="389.8474509803922" /><rect fill="rgb(168,87,255)" height="1.7615686274509699" stroke="none" width="16.0" x="730.5" y="388.9666666666667" /><rect fill="rgb(169,86,255)" height="1.7615686274509699" stroke="none" width="16.0" x="730.5" y="388.0858823529412" /><rect fill="rgb(170,85,255)" height="1.7615686274509699" stroke="none" width="16.0" x="730.5" y="387.2050980392157" /><rect fill="rgb(171,84,255)" height="1.7615686274509699" stroke="none" width="16.0" x="730.5" y="386.32431372549024" /><rect fill="rgb(172,82,255)" height="1.7615686274509699" stroke="none" width="16.0" x="730.5" y="385.44352941176476" /><rect fill="rgb(173,81,255)" height="1.7615686274509699" stroke="none" width="16.0" x="730.5" y="384.5627450980393" /><rect fill="rgb(174,81,255)" height="1.7615686274509699" stroke="none" width="16.0" x="730.5" y="383.6819607843138" /><rect fill="rgb(175,80,255)" height="1.7615686274509699" stroke="none" width="16.0" x="730.5" y="382.8011764705883" /><rect fill="rgb(176,79,255)" height="1.7615686274509699" stroke="none" width="16.0" x="730.5" y="381.9203921568628" /><rect fill="rgb(177,78,255)" height="1.7615686274510267" stroke="none" width="16.0" x="730.5" y="381.0396078431373" /><rect fill="rgb(178,77,255)" height="1.7615686274510267" stroke="none" width="16.0" x="730.5" y="380.1588235294118" /><rect fill="rgb(179,76,255)" height="1.7615686274509699" stroke="none" width="16.0" x="730.5" y="379.2780392156863" /><rect fill="rgb(179,75,255)" height="1.7615686274509699" stroke="none" width="16.0" x="730.5" y="378.3972549019608" /><rect fill="rgb(181,73,255)" height="1.7615686274509699" stroke="none" width="16.0" x="730.5" y="377.51647058823534" /><rect fill="rgb(182,73,255)" height="1.7615686274509699" stroke="none" width="16.0" x="730.5" y="376.63568627450985" /><rect fill="rgb(183,72,255)" height="1.7615686274510267" stroke="none" width="16.0" x="730.5" y="375.7549019607843" /><rect fill="rgb(184,71,255)" height="1.7615686274510267" stroke="none" width="16.0" x="730.5" y="374.8741176470588" /><rect fill="rgb(185,70,255)" height="1.7615686274509699" stroke="none" width="16.0" x="730.5" y="373.99333333333334" /><rect fill="rgb(186,69,255)" height="1.7615686274509699" stroke="none" width="16.0" x="730.5" y="373.11254901960785" /><rect fill="rgb(187,68,255)" height="1.7615686274509699" stroke="none" width="16.0" x="730.5" y="372.23176470588237" /><rect fill="rgb(188,66,255)" height="1.7615686274509699" stroke="none" width="16.0" x="730.5" y="371.3509803921569" /><rect fill="rgb(189,65,255)" height="1.7615686274509699" stroke="none" width="16.0" x="730.5" y="370.4701960784314" /><rect fill="rgb(190,65,255)" height="1.7615686274509699" stroke="none" width="16.0" x="730.5" y="369.5894117647059" /><rect fill="rgb(191,64,255)" height="1.7615686274509699" stroke="none" width="16.0" x="730.5" y="368.70862745098043" /><rect fill="rgb(192,63,255)" height="1.7615686274509699" stroke="none" width="16.0" x="730.5" y="367.82784313725494" /><rect fill="rgb(193,62,255)" height="1.7615686274509699" stroke="none" width="16.0" x="730.5" y="366.94705882352946" /><rect fill="rgb(194,61,255)" height="1.7615686274509699" stroke="none" width="16.0" x="730.5" y="366.066274509804" /><rect fill="rgb(195,60,255)" height="1.7615686274509699" stroke="none" width="16.0" x="730.5" y="365.1854901960785" /><rect fill="rgb(195,59,255)" height="1.7615686274509699" stroke="none" width="16.0" x="730.5" y="364.304705882353" /><rect fill="rgb(197,57,255)" height="1.7615686274509699" stroke="none" width="16.0" x="730.5" y="363.4239215686275" /><rect fill="rgb(198,56,255)" height="1.7615686274510267" stroke="none" width="16.0" x="730.5" y="362.543137254902" /><rect fill="rgb(199,56,255)" height="1.7615686274510267" stroke="none" width="16.0" x="730.5" y="361.6623529411765" /><rect fill="rgb(200,55,255)" height="1.7615686274509699" stroke="none" width="16.0" x="730.5" y="360.781568627451" /><rect fill="rgb(201,54,255)" height="1.7615686274509699" stroke="none" width="16.0" x="730.5" y="359.9007843137255" /><rect fill="rgb(202,53,255)" height="1.7615686274509699" stroke="none" width="16.0" x="730.5" y="359.02000000000004" /><rect fill="rgb(203,52,255)" height="1.7615686274509699" stroke="none" width="16.0" x="730.5" y="358.13921568627455" /><rect fill="rgb(204,50,255)" height="1.7615686274510267" stroke="none" width="16.0" x="730.5" y="357.258431372549" /><rect fill="rgb(205,49,255)" height="1.7615686274510267" stroke="none" width="16.0" x="730.5" y="356.3776470588235" /><rect fill="rgb(206,48,255)" height="1.7615686274509699" stroke="none" width="16.0" x="730.5" y="355.49686274509804" /><rect fill="rgb(207,48,255)" height="1.7615686274509699" stroke="none" width="16.0" x="730.5" y="354.61607843137256" /><rect fill="rgb(208,47,255)" height="1.7615686274509699" stroke="none" width="16.0" x="730.5" y="353.7352941176471" /><rect fill="rgb(209,46,255)" height="1.7615686274509699" stroke="none" width="16.0" x="730.5" y="352.8545098039216" /><rect fill="rgb(210,45,255)" height="1.7615686274509699" stroke="none" width="16.0" x="730.5" y="351.9737254901961" /><rect fill="rgb(211,44,255)" height="1.7615686274509699" stroke="none" width="16.0" x="730.5" y="351.0929411764706" /><rect fill="rgb(211,43,255)" height="1.7615686274509699" stroke="none" width="16.0" x="730.5" y="350.21215686274513" /><rect fill="rgb(213,41,255)" height="1.7615686274509699" stroke="none" width="16.0" x="730.5" y="349.33137254901965" /><rect fill="rgb(214,40,255)" height="1.7615686274509699" stroke="none" width="16.0" x="730.5" y="348.45058823529416" /><rect fill="rgb(215,40,255)" height="1.7615686274509699" stroke="none" width="16.0" x="730.5" y="347.5698039215687" /><rect fill="rgb(216,39,255)" height="1.7615686274509699" stroke="none" width="16.0" x="730.5" y="346.6890196078432" /><rect fill="rgb(217,38,255)" height="1.7615686274509699" stroke="none" width="16.0" x="730.5" y="345.8082352941177" /><rect fill="rgb(218,37,255)" height="1.7615686274509699" stroke="none" width="16.0" x="730.5" y="344.9274509803922" /><rect fill="rgb(219,36,255)" height="1.7615686274509699" stroke="none" width="16.0" x="730.5" y="344.04666666666674" /><rect fill="rgb(220,34,255)" height="1.7615686274510267" stroke="none" width="16.0" x="730.5" y="343.1658823529412" /><rect fill="rgb(221,33,255)" height="1.7615686274510267" stroke="none" width="16.0" x="730.5" y="342.2850980392157" /><rect fill="rgb(222,32,255)" height="1.7615686274509699" stroke="none" width="16.0" x="730.5" y="341.4043137254902" /><rect fill="rgb(223,32,255)" height="1.7615686274509699" stroke="none" width="16.0" x="730.5" y="340.52352941176474" /><rect fill="rgb(224,31,255)" height="1.7615686274509699" stroke="none" width="16.0" x="730.5" y="339.64274509803926" /><rect fill="rgb(225,30,255)" height="1.7615686274510267" stroke="none" width="16.0" x="730.5" y="338.7619607843137" /><rect fill="rgb(226,29,255)" height="1.7615686274510267" stroke="none" width="16.0" x="730.5" y="337.88117647058823" /><rect fill="rgb(227,28,255)" height="1.7615686274509699" stroke="none" width="16.0" x="730.5" y="337.00039215686274" /><rect fill="rgb(227,27,255)" height="1.7615686274509699" stroke="none" width="16.0" x="730.5" y="336.11960784313726" /><rect fill="rgb(229,25,255)" height="1.7615686274509699" stroke="none" width="16.0" x="730.5" y="335.2388235294118" /><rect fill="rgb(230,24,255)" height="1.7615686274509699" stroke="none" width="16.0" x="730.5" y="334.3580392156863" /><rect fill="rgb(231,24,255)" height="1.7615686274509699" stroke="none" width="16.0" x="730.5" y="333.4772549019608" /><rect fill="rgb(232,23,255)" height="1.7615686274509699" stroke="none" width="16.0" x="730.5" y="332.5964705882353" /><rect fill="rgb(233,22,255)" height="1.7615686274509699" stroke="none" width="16.0" x="730.5" y="331.71568627450984" /><rect fill="rgb(234,21,255)" height="1.7615686274509699" stroke="none" width="16.0" x="730.5" y="330.83490196078435" /><rect fill="rgb(235,20,255)" height="1.7615686274509699" stroke="none" width="16.0" x="730.5" y="329.95411764705887" /><rect fill="rgb(236,18,255)" height="1.7615686274509699" stroke="none" width="16.0" x="730.5" y="329.0733333333334" /><rect fill="rgb(237,17,255)" height="1.7615686274509699" stroke="none" width="16.0" x="730.5" y="328.1925490196079" /><rect fill="rgb(238,16,255)" height="1.7615686274509699" stroke="none" width="16.0" x="730.5" y="327.3117647058824" /><rect fill="rgb(239,16,255)" height="1.7615686274509699" stroke="none" width="16.0" x="730.5" y="326.4309803921569" /><rect fill="rgb(240,15,255)" height="1.7615686274509699" stroke="none" width="16.0" x="730.5" y="325.55019607843144" /><rect fill="rgb(241,14,255)" height="1.7615686274510267" stroke="none" width="16.0" x="730.5" y="324.6694117647059" /><rect fill="rgb(242,13,255)" height="1.7615686274510267" stroke="none" width="16.0" x="730.5" y="323.7886274509804" /><rect fill="rgb(243,12,255)" height="1.7615686274509699" stroke="none" width="16.0" x="730.5" y="322.90784313725493" /><rect fill="rgb(243,11,255)" height="1.7615686274509699" stroke="none" width="16.0" x="730.5" y="322.02705882352944" /><rect fill="rgb(245,9,255)" height="1.7615686274509699" stroke="none" width="16.0" x="730.5" y="321.14627450980396" /><rect fill="rgb(246,8,255)" height="1.7615686274509699" stroke="none" width="16.0" x="730.5" y="320.2654901960785" /><rect fill="rgb(247,8,255)" height="1.7615686274510267" stroke="none" width="16.0" x="730.5" y="319.38470588235293" /><rect fill="rgb(248,7,255)" height="1.7615686274510267" stroke="none" width="16.0" x="730.5" y="318.50392156862745" /><rect fill="rgb(249,6,255)" height="1.7615686274509699" stroke="none" width="16.0" x="730.5" y="317.62313725490196" /><rect fill="rgb(250,5,255)" height="1.7615686274509699" stroke="none" width="16.0" x="730.5" y="316.7423529411765" /><rect fill="rgb(251,4,255)" height="1.7615686274509699" stroke="none" width="16.0" x="730.5" y="315.861568627451" /><rect fill="rgb(252,2,255)" height="1.7615686274509699" stroke="none" width="16.0" x="730.5" y="314.9807843137255" /><rect fill="rgb(253,1,255)" height="1.7615686274509699" stroke="none" width="16.0" x="730.5" y="314.1" /><rect fill="rgb(254,0,255)" height="0.8807843137254849" stroke="none" width="16.0" x="730.5" y="314.1" /><rect fill="none" height="224.60000000000002" stroke="black" stroke-width="5.0" style="stroke-linecap:square" width="16.0" x="730.5" y="314.1" /><text fill="gray" font-size="12" style="text-anchor:start;font-family:Arial;dominant-baseline:mathematical" x="765.0" y="538.7">0%</text><text fill="gray" font-size="12" style="text-anchor:start;font-family:Arial;dominant-baseline:mathematical" x="765.0" y="482.55000000000007">25%</text><text fill="gray" font-size="12" style="text-anchor:start;font-family:Arial;dominant-baseline:mathematical" x="765.0" y="426.40000000000003">50%</text><text fill="gray" font-size="12" style="text-anchor:start;font-family:Arial;dominant-baseline:mathematical" x="765.0" y="370.25000000000006">75%</text><text fill="gray" font-size="12" style="text-anchor:start;font-family:Arial;dominant-baseline:mathematical" x="765.0" y="314.1">100%</text><line stroke="rgb(128,127,255)" stroke-width="1.2547649301143582" style="stroke-linecap:square;stroke-opacity:1.000000" x1="187.61927710843375" x2="189.12289156626505" y1="321.05" y2="531.75" /><line stroke="rgb(31,224,255)" stroke-width="0.6848792884371029" style="stroke-linecap:square;stroke-opacity:1.000000" x1="189.12289156626505" x2="189.12289156626505" y1="321.05" y2="531.75" /><line stroke="rgb(21,234,255)" stroke-width="0.627700127064803" style="stroke-linecap:square;stroke-opacity:1.000000" x1="185.73975903614456" x2="189.12289156626505" y1="321.05" y2="531.75" /><line stroke="rgb(14,241,255)" stroke-width="0.5857687420584499" style="stroke-linecap:square;stroke-opacity:1.000000" x1="188.3710843373494" x2="189.12289156626505" y1="321.05" y2="531.75" /><line stroke="rgb(14,241,255)" stroke-width="0.5857687420584499" style="stroke-linecap:square;stroke-opacity:1.000000" x1="186.11566265060242" x2="189.12289156626505" y1="321.05" y2="531.75" /><line stroke="rgb(11,244,255)" stroke-width="0.5648030495552732" style="stroke-linecap:square;stroke-opacity:1.000000" x1="189.87469879518073" x2="189.12289156626505" y1="321.05" y2="531.75" /><line stroke="rgb(8,247,255)" stroke-width="0.5514612452350699" style="stroke-linecap:square;stroke-opacity:1.000000" x1="186.49156626506024" x2="189.12289156626505" y1="321.05" y2="531.75" /><line stroke="rgb(4,251,255)" stroke-width="0.5285895806861499" style="stroke-linecap:square;stroke-opacity:1.000000" x1="190.25060240963856" x2="189.12289156626505" y1="321.05" y2="531.75" /><line stroke="rgb(3,252,255)" stroke-width="0.5190597204574333" style="stroke-linecap:square;stroke-opacity:1.000000" x1="190.6265060240964" x2="189.12289156626505" y1="321.05" y2="531.75" /><line stroke="rgb(3,252,255)" stroke-width="0.5190597204574333" style="stroke-linecap:square;stroke-opacity:1.000000" x1="187.99518072289158" x2="189.12289156626505" y1="321.05" y2="531.75" /><line stroke="rgb(1,254,255)" stroke-width="0.51143583227446" style="stroke-linecap:square;stroke-opacity:1.000000" x1="191.75421686746986" x2="189.12289156626505" y1="321.05" y2="531.75" /><line stroke="rgb(0,255,255)" stroke-width="0.5057179161372299" style="stroke-linecap:square;stroke-opacity:1.000000" x1="192.88192771084337" x2="189.12289156626505" y1="321.05" y2="531.75" /><line stroke="rgb(0,255,255)" stroke-width="0.5057179161372299" style="stroke-linecap:square;stroke-opacity:1.000000" x1="188.74698795180723" x2="189.12289156626505" y1="321.05" y2="531.75" /><line stroke="rgb(0,255,255)" stroke-width="0.5038119440914867" style="stroke-linecap:square;stroke-opacity:1.000000" x1="186.86746987951807" x2="189.12289156626505" y1="321.05" y2="531.75" /><line stroke="rgb(0,255,255)" stroke-width="0.5038119440914867" style="stroke-linecap:square;stroke-opacity:1.000000" x1="187.61927710843375" x2="188.3710843373494" y1="321.05" y2="531.75" /><line stroke="rgb(0,255,255)" stroke-width="0.5038119440914867" style="stroke-linecap:square;stroke-opacity:1.000000" x1="187.61927710843375" x2="188.74698795180723" y1="321.05" y2="531.75" /><line stroke="rgb(0,255,255)" stroke-width="0.5038119440914867" style="stroke-linecap:square;stroke-opacity:1.000000" x1="187.61927710843375" x2="189.49879518072288" y1="321.05" y2="531.75" /><line stroke="rgb(0,255,255)" stroke-width="0.5038119440914867" style="stroke-linecap:square;stroke-opacity:1.000000" x1="191.0024096385542" x2="189.12289156626505" y1="321.05" y2="531.75" /><line stroke="rgb(0,255,255)" stroke-width="0.5038119440914867" style="stroke-linecap:square;stroke-opacity:1.000000" x1="187.61927710843375" x2="187.99518072289158" y1="321.05" y2="531.75" /><line stroke="rgb(0,255,255)" stroke-width="0.5019059720457433" style="stroke-linecap:square;stroke-opacity:1.000000" x1="189.12289156626505" x2="188.3710843373494" y1="321.05" y2="531.75" /><line stroke="rgb(0,255,255)" stroke-width="0.5019059720457433" style="stroke-linecap:square;stroke-opacity:1.000000" x1="192.13012048192772" x2="188.3710843373494" y1="321.05" y2="531.75" /><line stroke="rgb(0,255,255)" stroke-width="0.5019059720457433" style="stroke-linecap:square;stroke-opacity:1.000000" x1="186.49156626506024" x2="188.74698795180723" y1="321.05" y2="531.75" /><line stroke="rgb(0,255,255)" stroke-width="0.5019059720457433" style="stroke-linecap:square;stroke-opacity:1.000000" x1="191.37831325301204" x2="189.12289156626505" y1="321.05" y2="531.75" /><line stroke="rgb(0,255,255)" stroke-width="0.5019059720457433" style="stroke-linecap:square;stroke-opacity:1.000000" x1="682.3084337349397" x2="189.12289156626505" y1="321.05" y2="531.75" /><line stroke="rgb(0,255,255)" stroke-width="0.5019059720457433" style="stroke-linecap:square;stroke-opacity:1.000000" x1="188.3710843373494" x2="188.3710843373494" y1="321.05" y2="531.75" /><line stroke="rgb(0,255,255)" stroke-width="0.5019059720457433" style="stroke-linecap:square;stroke-opacity:1.000000" x1="197.76867469879517" x2="189.12289156626505" y1="321.05" y2="531.75" /><line stroke="rgb(0,255,255)" stroke-width="0.5019059720457433" style="stroke-linecap:square;stroke-opacity:1.000000" x1="186.11566265060242" x2="60.563855421686746" y1="321.05" y2="531.75" /><line stroke="rgb(0,255,255)" stroke-width="0.5019059720457433" style="stroke-linecap:square;stroke-opacity:1.000000" x1="189.87469879518073" x2="188.3710843373494" y1="321.05" y2="531.75" /><line stroke="rgb(0,255,255)" stroke-width="0.5019059720457433" style="stroke-linecap:square;stroke-opacity:1.000000" x1="189.87469879518073" x2="187.99518072289158" y1="321.05" y2="531.75" /><line stroke="rgb(0,255,255)" stroke-width="0.5019059720457433" style="stroke-linecap:square;stroke-opacity:1.000000" x1="662.3855421686748" x2="189.12289156626505" y1="321.05" y2="531.75" /><line stroke="rgb(0,255,255)" stroke-width="0.5019059720457433" style="stroke-linecap:square;stroke-opacity:1.000000" x1="186.49156626506024" x2="188.3710843373494" y1="321.05" y2="531.75" /><line stroke="rgb(0,255,255)" stroke-width="0.5019059720457433" style="stroke-linecap:square;stroke-opacity:1.000000" x1="192.50602409638554" x2="189.12289156626505" y1="321.05" y2="531.75" /><line stroke="rgb(0,255,255)" stroke-width="0.5019059720457433" style="stroke-linecap:square;stroke-opacity:1.000000" x1="189.49879518072288" x2="189.12289156626505" y1="321.05" y2="531.75" /><line stroke="rgb(0,255,255)" stroke-width="0.5019059720457433" style="stroke-linecap:square;stroke-opacity:1.000000" x1="186.11566265060242" x2="188.3710843373494" y1="321.05" y2="531.75" /><line stroke="rgb(0,255,255)" stroke-width="0.5019059720457433" style="stroke-linecap:square;stroke-opacity:1.000000" x1="189.12289156626505" x2="188.74698795180723" y1="321.05" y2="531.75" /><line stroke="rgb(0,255,255)" stroke-width="0.5019059720457433" style="stroke-linecap:square;stroke-opacity:1.000000" x1="192.50602409638554" x2="188.3710843373494" y1="321.05" y2="531.75" /><line stroke="black" stroke-width="2.5" style="stroke-linecap:square" x1="60.0" x2="684.0" y1="311.6" y2="311.6" /><line stroke="black" stroke-width="2.5" style="stroke-linecap:square" x1="60.0" x2="684.0" y1="541.2" y2="541.2" /></svg>